<?xml version="1.0" encoding="utf-8"?>
<!-- Generator: Adobe Illustrator 24.0.1, SVG Export Plug-In . SVG Version: 6.00 Build 0)  -->
<svg version="1.1" id="ico" xmlns="http://www.w3.org/2000/svg" x="0px"
     y="0px"
     width="50px" height="50px" viewBox="0 0 50 50" style="enable-background:new 0 0 50 50;" xml:space="preserve">
<path d="M43.618,21.346l-7.55-7.884c-1.058-0.935-2.419-1.45-3.833-1.45H7.448c-1.67,0-3.029,1.359-3.029,3.029v18.074
	c0,1.671,1.359,3.03,3.029,3.03h1.956c-0.053,0.289-0.079,0.573-0.079,0.858c0,2.863,2.329,5.192,5.192,5.192
	c2.863,0,5.192-2.329,5.192-5.192c0-0.285-0.027-0.57-0.079-0.858h10.465c-0.053,0.288-0.079,0.573-0.079,0.858
	c0,2.863,2.329,5.192,5.192,5.192s5.192-2.329,5.192-5.192c0-0.285-0.027-0.57-0.08-0.858h2.231c1.67,0,3.029-1.359,3.029-3.03
	v-7.389C45.581,24.053,44.866,22.458,43.618,21.346z M14.517,40.896c-2.146,0-3.892-1.745-3.892-3.892
	c0-0.415,0.078-0.838,0.239-1.292c0.551-1.556,2.019-2.601,3.653-2.601c1.635,0,3.103,1.045,3.653,2.601
	c0.161,0.454,0.239,0.876,0.239,1.292C18.409,39.15,16.663,40.896,14.517,40.896z M35.208,40.896c-2.146,0-3.893-1.745-3.893-3.892
	c0-0.416,0.078-0.838,0.239-1.292c0.55-1.556,2.019-2.601,3.653-2.601c1.634,0,3.103,1.045,3.653,2.601
	c0.161,0.455,0.239,0.878,0.239,1.292C39.101,39.15,37.354,40.896,35.208,40.896z M44.281,33.115c0,0.954-0.776,1.729-1.729,1.729
	h-2.64c-0.027-0.058-0.063-0.11-0.092-0.168c-0.051-0.102-0.106-0.2-0.163-0.297c-0.074-0.126-0.153-0.248-0.237-0.367
	c-0.065-0.092-0.132-0.182-0.203-0.27c-0.091-0.112-0.187-0.218-0.286-0.322c-0.077-0.081-0.154-0.161-0.236-0.236
	c-0.106-0.098-0.218-0.187-0.331-0.275c-0.087-0.068-0.173-0.136-0.264-0.198c-0.121-0.082-0.247-0.154-0.374-0.225
	c-0.094-0.053-0.185-0.109-0.282-0.156c-0.137-0.066-0.28-0.12-0.422-0.174c-0.095-0.036-0.188-0.078-0.285-0.108
	c-0.162-0.051-0.329-0.085-0.496-0.119c-0.085-0.018-0.167-0.043-0.253-0.056c-0.255-0.039-0.515-0.062-0.779-0.062
	s-0.524,0.022-0.779,0.062c-0.087,0.013-0.17,0.039-0.255,0.057c-0.166,0.034-0.332,0.068-0.493,0.119
	c-0.099,0.031-0.192,0.073-0.289,0.11c-0.141,0.054-0.283,0.107-0.419,0.172c-0.098,0.048-0.191,0.104-0.286,0.158
	c-0.126,0.071-0.251,0.142-0.371,0.224c-0.092,0.063-0.178,0.132-0.266,0.2c-0.112,0.088-0.223,0.176-0.328,0.273
	c-0.083,0.076-0.161,0.157-0.239,0.238c-0.099,0.103-0.194,0.208-0.284,0.32c-0.071,0.088-0.139,0.179-0.204,0.272
	c-0.083,0.118-0.161,0.239-0.235,0.365c-0.058,0.098-0.113,0.197-0.164,0.299c-0.029,0.057-0.065,0.108-0.091,0.167H19.22
	c-0.027-0.058-0.063-0.11-0.091-0.167c-0.052-0.102-0.106-0.201-0.164-0.299c-0.074-0.125-0.152-0.247-0.235-0.365
	c-0.066-0.093-0.133-0.184-0.204-0.272c-0.09-0.111-0.185-0.217-0.284-0.32c-0.078-0.082-0.156-0.162-0.239-0.238
	c-0.105-0.097-0.216-0.185-0.328-0.273c-0.088-0.068-0.174-0.138-0.266-0.2c-0.12-0.081-0.245-0.152-0.371-0.224
	c-0.095-0.053-0.188-0.11-0.286-0.158c-0.136-0.066-0.277-0.119-0.419-0.172c-0.096-0.037-0.19-0.079-0.289-0.11
	c-0.161-0.05-0.327-0.084-0.493-0.119c-0.086-0.018-0.169-0.044-0.255-0.057c-0.255-0.039-0.515-0.062-0.779-0.062
	s-0.524,0.022-0.779,0.062c-0.086,0.013-0.168,0.039-0.253,0.056c-0.167,0.035-0.334,0.069-0.496,0.119
	c-0.098,0.031-0.19,0.072-0.285,0.108c-0.143,0.054-0.285,0.107-0.422,0.174c-0.097,0.047-0.189,0.103-0.282,0.156
	c-0.127,0.072-0.253,0.143-0.374,0.225c-0.091,0.062-0.177,0.131-0.264,0.198c-0.114,0.088-0.225,0.178-0.331,0.275
	c-0.082,0.075-0.159,0.155-0.236,0.236c-0.099,0.104-0.195,0.21-0.286,0.322c-0.071,0.087-0.137,0.177-0.203,0.27
	c-0.084,0.119-0.163,0.241-0.237,0.367c-0.057,0.097-0.112,0.195-0.163,0.297c-0.029,0.057-0.065,0.109-0.092,0.168H7.448
	c-0.954,0-1.729-0.775-1.729-1.729V15.041c0-0.953,0.776-1.729,1.729-1.729h24.788c1.096,0,2.151,0.398,2.933,1.086l7.529,7.865
	c0.013,0.014,0.026,0.026,0.04,0.038c0.981,0.866,1.544,2.115,1.544,3.425V33.115z M33.655,15.287
	c-0.121-0.111-0.278-0.174-0.442-0.174H31c-0.359,0-0.65,0.291-0.65,0.65v10.314c0,0.359,0.291,0.65,0.65,0.65h10.931
	c0.359,0,0.65-0.291,0.65-0.65c0-1.595-0.576-2.417-1.198-3.306C40.79,21.925,34.841,16.389,33.655,15.287z M31.65,25.428v-9.014
	h1.307c2.72,2.528,6.974,6.551,7.373,7.122c0.44,0.629,0.784,1.118,0.904,1.892H31.65z M21.443,15.248v16.03
	c0,0.359-0.291,0.65-0.65,0.65s-0.65-0.291-0.65-0.65v-16.03c0-0.359,0.291-0.65,0.65-0.65S21.443,14.889,21.443,15.248z"/>
</svg>
