<?xml version="1.0"?>
<svg width="24.000000000000004" height="24.000000000000004" xmlns="http://www.w3.org/2000/svg"
>
    <g class="layer">
        <title>Layer 1</title>
        <path clip-rule="evenodd"
              d="m10.01,23.52c-0.04,0.04 -0.08,0.09 -0.13,0.13c-0.43,0.35 -1.09,0.29 -1.44,-0.13c-5.62,-6.67 -8.43,-11.55 -8.43,-14.63c0,-4.83 4.33,-8.75 9.22,-8.75c4.89,0 9.22,3.92 9.22,8.75c0,3.08 -2.81,7.96 -8.43,14.63zm-0.79,-11.23c1.7,0 3.07,-1.36 3.07,-3.04c0,-1.68 -1.37,-3.04 -3.07,-3.04c-1.7,0 -3.07,1.36 -3.07,3.04c0,1.68 1.37,3.04 3.07,3.04z"
              fill="#e5e5e5" fill-rule="evenodd" id="svg_1"/>
    </g>
</svg>